<?xml version="1.0" standalone="no"?><!DOCTYPE svg PUBLIC "-//W3C//DTD SVG 1.1//EN" "http://www.w3.org/Graphics/SVG/1.1/DTD/svg11.dtd"><svg t="1523439097414" class="icon" style="" viewBox="0 0 1024 1024" version="1.1" xmlns="http://www.w3.org/2000/svg" p-id="3194" xmlns:xlink="http://www.w3.org/1999/xlink" width="32" height="32"><defs><style type="text/css"></style></defs><path d="M874.0352 149.956267C777.335467 53.256533 648.7552 0 512 0 375.236267 0 246.664533 53.248 149.956267 149.956267 53.256533 246.664533 0 375.236267 0 512s53.248 265.335467 149.956267 362.043733C246.664533 970.743467 375.236267 1024 512 1024s265.335467-53.248 362.043733-149.956267C970.743467 777.335467 1024 648.763733 1024 512s-53.256533-265.335467-149.9648-362.043733zM554.666667 469.333333V315.682133A42.606933 42.606933 0 0 0 512 273.066667a42.666667 42.666667 0 0 0-42.666667 42.615466V469.333333H315.682133A42.606933 42.606933 0 0 0 273.066667 512a42.666667 42.666667 0 0 0 42.615466 42.666667H469.333333v153.6512A42.606933 42.606933 0 0 0 512 750.933333a42.666667 42.666667 0 0 0 42.666667-42.615466V554.666667h153.6512A42.606933 42.606933 0 0 0 750.933333 512a42.666667 42.666667 0 0 0-42.615466-42.666667H554.666667z m259.029333 344.362667C733.115733 894.293333 625.962667 938.666667 512 938.666667c-113.962667 0-221.115733-44.381867-301.696-124.970667C129.706667 733.1072 85.333333 625.962667 85.333333 512c0-113.962667 44.381867-221.115733 124.970667-301.696C290.8928 129.706667 398.037333 85.333333 512 85.333333c113.962667 0 221.115733 44.381867 301.696 124.970667C894.293333 290.884267 938.666667 398.037333 938.666667 512c0 113.9712-44.381867 221.115733-124.970667 301.696z" fill="#4990EE" p-id="3195"></path></svg>