<?xml version="1.0" standalone="no"?><!DOCTYPE svg PUBLIC "-//W3C//DTD SVG 1.1//EN" "http://www.w3.org/Graphics/SVG/1.1/DTD/svg11.dtd"><svg t="1523439152869" class="icon" style="" viewBox="0 0 1024 1024" version="1.1" xmlns="http://www.w3.org/2000/svg" p-id="3968" xmlns:xlink="http://www.w3.org/1999/xlink" width="32" height="32"><defs><style type="text/css"></style></defs><path d="M512.102 957.31c-60.393 0-118.99-11.833-174.162-35.169-53.282-22.536-101.129-54.795-142.213-95.88-41.085-41.084-73.344-88.932-95.879-142.213C76.512 628.876 64.68 570.28 64.68 509.886c0-60.394 11.833-118.991 35.168-174.163 22.536-53.281 54.794-101.128 95.879-142.213 41.084-41.084 88.931-73.343 142.213-95.878 55.171-23.337 113.769-35.168 174.162-35.168s118.991 11.832 174.163 35.168c53.28 22.535 101.128 54.795 142.213 95.878 41.085 41.085 73.342 88.932 95.879 142.213 23.336 55.173 35.169 113.77 35.169 174.163 0 60.394-11.833 118.99-35.168 174.162-22.537 53.281-54.795 101.129-95.88 142.213-41.084 41.086-88.932 73.344-142.212 95.88-55.173 23.337-113.77 35.168-174.164 35.168z m0-859.234c-55.601 0-109.531 10.886-160.29 32.355-49.035 20.74-93.078 50.435-130.904 88.26-37.826 37.827-67.522 81.87-88.262 130.905-21.469 50.76-32.354 104.689-32.354 160.29s10.886 109.531 32.355 160.29c20.74 49.035 50.436 93.078 88.262 130.904 37.826 37.825 81.869 67.52 130.905 88.262 50.758 21.47 104.688 32.355 160.29 32.355 55.602 0 109.531-10.885 160.289-32.355 49.036-20.74 93.079-50.437 130.904-88.262 37.827-37.827 67.521-81.869 88.263-130.904 21.469-50.759 32.355-104.689 32.355-160.29 0-55.603-10.885-109.532-32.355-160.29-20.74-49.036-50.436-93.079-88.263-130.904-37.826-37.826-81.868-67.521-130.904-88.261-50.759-21.47-104.688-32.355-160.29-32.355z m-241.659 411.81c0-11.862 9.652-21.48 21.471-21.48h445.749c11.858 0 21.47 9.641 21.47 21.48 0 11.864-9.651 21.482-21.47 21.482h-445.75c-11.858 0-21.47-9.642-21.47-21.481z m467.219 22.965H291.913c-12.657 0-22.953-10.303-22.953-22.965s10.296-22.965 22.953-22.965h445.749c12.657 0 22.954 10.301 22.954 22.965s-10.297 22.965-22.954 22.965z m-445.749-42.962c-11.02 0-19.986 8.97-19.986 19.998 0 11.027 8.966 19.997 19.986 19.997h445.749c11.02 0 19.987-8.97 19.987-19.997 0-11.026-8.967-19.998-19.987-19.998H291.913z" p-id="3969" fill="#2c2c2c"></path></svg>