<svg xmlns="http://www.w3.org/2000/svg" width="17" height="17" viewBox="0 0 17 17"><g fill="#FFF" fill-rule="evenodd"><path d="M7.083 2.028v12.997l-4.115-3.717-.243-.173H.85v-5.16h1.88l.245-.18 4.108-3.79v.023zM7.933 0L2.41 5.064H0v6.982h2.41L7.934 17V0z"/><path d="M7.083 2.028v12.997l-4.115-3.717-.243-.173H.85v-5.16h1.88l.245-.18 4.108-3.79v.023zM7.933 0L2.41 5.064H0v6.982h2.41L7.934 17V0zM10.2 12.467v-.937c1.43 0 2.595-1.36 2.595-3.03 0-1.67-1.164-3.03-2.595-3.03v-.937c1.875 0 3.4 1.78 3.4 3.967 0 2.187-1.525 3.967-3.4 3.967z"/><path d="M10.2 15.867v-.925c3.278 0 5.944-2.89 5.944-6.442S13.478 2.058 10.2 2.058v-.925c3.75 0 6.8 3.305 6.8 7.367 0 4.062-3.05 7.367-6.8 7.367z"/><path d="M10.2 12.467v-.937c1.43 0 2.595-1.36 2.595-3.03 0-1.67-1.164-3.03-2.595-3.03v-.937c1.875 0 3.4 1.78 3.4 3.967 0 2.187-1.525 3.967-3.4 3.967z"/><path d="M10.2 15.867v-.925c3.278 0 5.944-2.89 5.944-6.442S13.478 2.058 10.2 2.058v-.925c3.75 0 6.8 3.305 6.8 7.367 0 4.062-3.05 7.367-6.8 7.367z"/></g></svg>